<mxfile host="app.diagrams.net" modified="2024-06-27T07:03:05.322Z" agent="Mozilla/5.0 (Windows NT 10.0; Win64; x64) AppleWebKit/537.36 (KHTML, like Gecko) Chrome/126.0.0.0 Safari/537.36" etag="gYJP_FRqvpMKMuPeKlc-" version="24.5.4" type="device">
  <diagram name="Page-1" id="kWUXImxN4X_YHogbK6Ng">
    <mxGraphModel dx="1450" dy="1015" grid="0" gridSize="10" guides="1" tooltips="1" connect="1" arrows="1" fold="1" page="0" pageScale="1" pageWidth="827" pageHeight="1169" math="0" shadow="0">
      <root>
        <mxCell id="0" />
        <mxCell id="1" parent="0" />
        <mxCell id="DPYozgnEQJ65fLPF5u95-1" value="Select" style="text;whiteSpace=wrap;html=1;" vertex="1" parent="1">
          <mxGeometry x="556.4000244140625" y="-5.20001220703125" width="61" height="36" as="geometry" />
        </mxCell>
        <mxCell id="DPYozgnEQJ65fLPF5u95-2" value="" style="rounded=0;whiteSpace=wrap;html=1;" vertex="1" parent="1">
          <mxGeometry x="-104" y="33" width="120" height="60" as="geometry" />
        </mxCell>
      </root>
    </mxGraphModel>
  </diagram>
</mxfile>
